<svg height="16" viewBox="0 0 16 16" width="16" xmlns="http://www.w3.org/2000/svg"><path d="m7.5 1c-3.589844 0-6.5 2.90625-6.5 6.488281 0 2.867188 1.863281 5.300782 4.445313 6.160157.324218.058593.554687-.273438.554687-.523438 0-.152344.003906-.335937 0-.875-1.808594.390625-2.375-.875-2.375-.875-.296875-.75-.65625-.964844-.65625-.964844-.589844-.402343.042969-.390625.042969-.390625.652344.042969.988281.605469.988281.605469.5.875 1.628906.789063 2 .625 0-.398437.042969-.6875.152344-.871094-2.042969-.359375-3.15625-1.539062-3.152344-3.171875.003906-.964843.335938-1.714843.875-2.269531-.234375-.296875-.394531-1.3125.085938-1.9375 1.207031 0 1.925781.871094 1.925781.871094s.566406-.246094 1.609375-.246094c1.046875 0 1.609375.234375 1.609375.234375s.722656-.859375 1.929687-.859375c.480469.625.320313 1.640625.132813 1.917969.515625.542969.832031 1.292969.832031 2.289062 0 1.632813-1.109375 2.8125-3.148437 3.167969.128906.195313.148437.46875.148437.875v1.875c0 .25.226563.585938.558594.523438 2.582031-.863282 4.441406-3.292969 4.441406-6.160157 0-3.582031-2.910156-6.488281-6.5-6.488281z"/></svg>