<svg height="16" viewBox="0 0 26 26" width="16" xmlns="http://www.w3.org/2000/svg"><path d="m13 .1875c-7.074219 0-12.8125 5.738281-12.8125 12.8125s5.738281 12.8125 12.8125 12.8125 12.8125-5.738281 12.8125-12.8125-5.738281-12.8125-12.8125-12.8125zm0 2c5.960938 0 10.8125 4.851563 10.8125 10.8125 0 .46875-.035156.921875-.09375 1.375-.199219-.050781-.824219-.210937-1.5-.21875-.605469-.007812-1.332031.09375-1.71875.15625.101563-.414062.1875-.855469.1875-1.3125 0-1.140625-.429687-2.25-1.1875-3.1875.28125-.882812.671875-2.890625-.09375-3.65625-1.875 0-2.929687 1.191406-3.125 1.4375-.859375-.3125-1.789062-.46875-2.78125-.46875-.96875 0-1.90625.140625-2.75.4375-.261719-.316406-1.296875-1.40625-3.09375-1.40625-.75.75-.375 2.683594-.09375 3.59375-.792969.953125-1.25 2.082031-1.25 3.25 0 .429688.035156.859375.125 1.25-.328125-.027344-1.660156-.125-2.1875-.125s-1.394531.113281-1.96875.25c-.058594-.453125-.09375-.90625-.09375-1.375 0-5.960937 4.851563-10.8125 10.8125-10.8125zm-8.75 12.1875c.519531 0 2.121094.144531 2.28125.15625.027344.09375.058594.1875.09375.28125-.527344-.042969-1.65625-.117187-2.375-.03125-.878906.105469-1.527344.453125-1.78125.59375-.054687-.246094-.117187-.5-.15625-.75.550781-.128906 1.449219-.25 1.9375-.25zm17.96875.03125c.65625.007813 1.300781.148438 1.46875.1875-.015625.113281-.042969.230469-.0625.34375-.085937-.023437-.867187-.261719-1.6875-.28125-.402344-.011719-1.039062.054688-1.53125.09375.023438-.0625.042969-.125.0625-.1875.339844-.046875 1.148438-.164062 1.75-.15625zm-.3125.5c.796875.019531 1.640625.269531 1.6875.28125-.738281 3.589844-3.257812 6.511719-6.59375 7.84375v-1.71875c0-1.082031-.644531-2.488281-1.5625-3.1875 2.585938-.371094 4.195313-1.515625 4.875-3.125.464844-.039062 1.175781-.105469 1.59375-.09375zm-16.84375.09375c.714844.003906 1.355469.039063 1.65625.0625.695313 1.574219 2.292969 2.695313 4.84375 3.0625-.289062.222656-.558594.511719-.78125.84375-.007812.011719-.023437.019531-.03125.03125-.5.601563-1.4375.5625-2.3125.5625-.894531 0-1.429687-.714844-1.90625-1.34375-.480469-.625-1.105469-.679687-1.4375-.71875-.332031-.035156-.421875.132813-.25.25.972656.683594 1.355469 1.519531 1.75 2.25.355469.65625 1.085938 1 1.90625 1h1.53125c-.011719.101563-.03125.214844-.03125.3125v2.0625c-3.683594-1.0625-6.535156-4.015625-7.46875-7.75.195313-.109375.882813-.492187 1.75-.59375.207031-.023437.484375-.03125.78125-.03125zm8.4375 6c.277344 0 .5.222656.5.5v2.25c-.332031.03125-.660156.0625-1 .0625v-2.3125c0-.277344.222656-.5.5-.5zm-2 .59375c.277344 0 .5.222656.5.5v1.65625c-.332031-.03125-.675781-.066406-1-.125v-1.53125c0-.277344.222656-.5.5-.5zm4 0c.277344 0 .5.222656.5.5v1.28125c-.328125.09375-.660156.1875-1 .25v-1.53125c0-.277344.222656-.5.5-.5z"/></svg>