<svg height="16" viewBox="0 0 32 32" width="16" xmlns="http://www.w3.org/2000/svg"><path d="m16 4c-6.628906 0-12 5.371094-12 12 0 5.300781 3.4375 9.800781 8.207031 11.386719.601563.109375.820313-.257813.820313-.578125 0-.285156-.011719-1.039063-.015625-2.039063-3.339844.722657-4.042969-1.609375-4.042969-1.609375-.546875-1.386718-1.332031-1.757812-1.332031-1.757812-1.089844-.742188.082031-.726563.082031-.726563 1.203125.085938 1.835938 1.234375 1.835938 1.234375 1.070312 1.835938 2.808593 1.304688 3.492187 1 .109375-.777343.421875-1.304687.761719-1.605468-2.664063-.300782-5.464844-1.332032-5.464844-5.929688 0-1.3125.46875-2.382812 1.234375-3.222656-.121094-.300781-.535156-1.523438.117188-3.175781 0 0 1.007812-.320313 3.300781 1.230468.957031-.265625 1.984375-.398437 3.003906-.402343 1.019531.003906 2.046875.136718 3.003906.402343 2.292969-1.550781 3.296875-1.230468 3.296875-1.230468.65625 1.652343.246094 2.875.121094 3.175781.769531.839844 1.230469 1.910156 1.230469 3.222656 0 4.609375-2.804688 5.621094-5.476563 5.921875.429688.367188.8125 1.101563.8125 2.21875 0 1.605469-.011718 2.898438-.011718 3.292969 0 .320312.214843.695312.824218.578125 4.765625-1.589844 8.199219-6.085938 8.199219-11.386719 0-6.628906-5.371094-12-12-12z" fill-rule="evenodd"/></svg>